# xmcd CD database file
#
# Track frame offsets:
#	150
#	18891
#	33925
#	50957
#	66489
#	76368
#	93370
#	110786
#	123769
#	137398
#	160944
#	176391
#	189847
#	204714
#	217445
#	237733
#
# Disc length: 3397 seconds
#
# Revision: 0
# Processed by: cddbd v1.5.2PL0 Copyright (c) Steve Scherf et al.
# Submitted via: CDex 1.51
#
DISCID=e70d4310
DTITLE=La Chiva - El vagón
DYEAR=2008
DGENRE=Blues
TTITLE0=Siempre igual
TTITLE1=Blues de 1/2 noche
TTITLE2=El vagón
TTITLE3=Regálame
TTITLE4=Boss-anda
TTITLE5=Historias
TTITLE6=Hasta mañana
TTITLE7=Valentina's Song
TTITLE8=Algo bueno
TTITLE9=Bella sinfonia
TTITLE10=Madrufarra blues
TTITLE11=Camarón camarada
TTITLE12=Donde sólo tú estás
TTITLE13=Más de una hora
TTITLE14=Blues para mi cadáver
TTITLE15=Vivo madrufarra
EXTD=YEAR: 2008
EXTT0=
EXTT1=
EXTT2=
EXTT3=
EXTT4=
EXTT5=
EXTT6=
EXTT7=
EXTT8=
EXTT9=
EXTT10=
EXTT11=
EXTT12=
EXTT13=
EXTT14=
EXTT15=
PLAYORDER=
